<?xml version="1.0" standalone="no"?>
<!DOCTYPE svg PUBLIC "-//W3C//DTD SVG 20010904//EN"
 "http://www.w3.org/TR/2001/REC-SVG-20010904/DTD/svg10.dtd">
<svg version="1.0" xmlns="http://www.w3.org/2000/svg"
 width="775.000000pt" height="557.000000pt" viewBox="0 0 775.000000 557.000000"
 preserveAspectRatio="xMidYMid meet">

<g transform="translate(0.000000,557.000000) scale(0.100000,-0.100000)"
fill="#000000" stroke="none">
<path d="M4551 5290 c-4 -38 93 -1055 101 -1058 4 -2 7 -13 7 -25 -1 -17 -2
-18 -6 -4 -4 16 -6 15 -22 -5 l-18 -21 -217 116 c-120 63 -224 113 -232 110
-8 -3 -13 -17 -13 -32 1 -17 3 -20 6 -8 2 9 6 17 8 17 3 0 397 -210 402 -214
5 -4 -274 -116 -289 -116 -8 0 -30 10 -49 23 -19 13 -41 26 -50 29 -9 4 -85
45 -169 93 -85 47 -159 84 -167 81 -7 -3 -12 -19 -12 -38 1 -24 3 -27 6 -10 2
12 6 22 9 22 10 0 384 -215 384 -220 0 -4 -66 -34 -147 -67 -144 -59 -149 -60
-175 -45 -20 12 -28 25 -29 47 -1 29 -2 29 -8 4 -6 -25 -6 -25 -179 77 -96 57
-180 100 -188 97 -8 -3 -14 -17 -13 -32 l1 -26 10 27 c9 27 10 27 40 12 16 -8
28 -18 25 -21 -3 -2 -14 0 -25 6 -12 6 -24 11 -29 11 -4 0 74 -49 175 -109
101 -59 188 -113 193 -118 7 -7 -41 -32 -147 -77 -86 -36 -159 -65 -160 -63
-2 2 -11 21 -19 43 -15 37 -15 38 -10 7 l4 -33 -37 24 c-349 220 -348 219
-365 209 -11 -7 -11 -19 -1 -68 l13 -60 -5 53 c-4 44 -2 52 9 45 67 -40 376
-237 374 -239 -1 -1 -69 -30 -151 -64 -171 -71 -166 -72 -187 29 -19 96 -27
127 -28 110 -1 -23 29 -171 40 -190 4 -9 6 -19 2 -22 -3 -3 -87 49 -186 116
-247 166 -232 158 -250 144 -12 -10 -12 -19 -1 -62 l13 -50 -6 44 c-3 24 -1
42 4 40 18 -8 374 -251 371 -254 -10 -8 -273 -115 -284 -115 -7 0 -20 21 -28
48 -8 26 -15 39 -15 29 -1 -10 6 -33 14 -53 14 -34 14 -35 -11 -44 -22 -9 -45
5 -222 130 -108 77 -205 140 -214 140 -13 0 -18 -8 -18 -27 0 -18 3 -23 8 -16
8 13 12 10 274 -178 l108 -77 -136 -57 c-98 -42 -138 -55 -146 -47 -6 6 -21
48 -34 94 -12 46 -23 76 -23 68 -1 -16 30 -130 44 -163 6 -13 -1 -20 -30 -33
-21 -8 -44 -13 -51 -10 -8 3 -97 69 -198 146 -217 165 -240 173 -215 75 6 -25
14 -44 16 -41 2 2 0 20 -5 40 -6 20 -9 36 -6 36 2 0 32 -21 65 -47 44 -35 57
-49 44 -51 -14 -3 -16 -11 -12 -38 3 -19 13 -49 22 -67 16 -29 44 -127 45
-153 0 -6 -12 -16 -27 -23 -34 -15 -34 -15 -73 128 -17 64 -35 127 -40 141
-19 50 2 -43 36 -164 19 -65 33 -120 32 -122 -2 -1 -28 -13 -59 -27 l-56 -25
-179 150 c-208 173 -206 171 -227 155 -15 -11 -11 -31 44 -207 33 -107 61
-201 62 -208 1 -8 -30 -26 -78 -46 l-81 -33 -178 159 c-99 87 -185 162 -191
166 -13 7 -395 1166 -395 1197 0 10 -5 35 -12 57 -9 31 -16 38 -32 36 -26 -4
-24 -23 9 -93 12 -27 73 -203 135 -390 61 -187 145 -443 187 -568 41 -125 73
-234 70 -241 -3 -7 15 -74 39 -147 24 -74 49 -152 55 -173 8 -31 13 -36 21
-25 8 11 9 10 4 -4 -3 -10 1 -32 10 -49 8 -16 13 -33 9 -36 -3 -3 -52 -25
-108 -49 l-101 -43 -46 43 c-25 23 -106 102 -182 175 -123 120 -138 133 -157
122 -12 -6 -21 -13 -21 -15 0 -10 131 -359 141 -373 14 -22 12 -17 -62 182
-32 88 -58 161 -56 162 1 1 76 -69 167 -156 91 -87 163 -160 160 -162 -3 -2
-40 -19 -83 -38 -50 -21 -77 -38 -77 -49 -1 -10 -7 -5 -16 12 -9 16 -18 27
-20 24 -3 -2 11 -31 30 -64 19 -33 44 -85 56 -115 27 -72 78 -125 136 -140 37
-10 61 -29 131 -103 47 -49 291 -299 542 -553 431 -439 457 -467 477 -524 12
-33 33 -71 46 -85 25 -27 69 -53 90 -53 7 0 -6 9 -29 19 -23 11 -47 30 -54 43
-12 23 -50 141 -46 144 1 1 169 90 372 199 204 109 523 280 710 380 187 100
473 253 635 340 162 86 327 174 365 195 142 76 1235 661 1704 911 265 143 485
259 486 259 2 0 6 -24 8 -52 2 -35 4 -21 5 38 3 130 2 130 -150 52 -68 -34
-126 -63 -130 -63 -5 0 -8 -3 -8 -7 0 -5 0 -10 0 -12 0 -3 28 11 63 31 111 63
196 103 201 95 6 -10 -244 -142 -268 -142 -10 0 -16 8 -16 25 0 14 5 25 11 25
9 0 11 195 8 759 -2 417 -7 757 -11 754 -5 -2 -8 12 -8 32 0 22 4 34 10 30 6
-3 10 -1 10 4 0 6 -6 11 -12 11 -10 0 -12 -157 -10 -762 2 -420 1 -787 -3
-816 -10 -82 -21 -82 -171 -2 -71 38 -329 176 -574 308 -288 154 -445 243
-444 253 1 7 5 23 9 34 3 11 -1 8 -10 -7 -8 -16 -18 -28 -21 -28 -2 0 -30 13
-62 29 -31 15 -63 26 -69 24 -8 -3 -12 -21 -12 -46 2 -41 2 -41 8 -9 l6 32
628 -336 c345 -186 627 -340 627 -343 0 -3 -65 -39 -144 -80 l-144 -75 -133
75 c-641 359 -969 545 -969 550 0 3 32 19 70 36 67 30 70 33 68 65 l-1 33 -4
-31 c-4 -28 -12 -34 -78 -63 l-73 -32 -43 22 c-24 12 -61 32 -81 45 -46 29
-68 23 -67 -20 1 -24 3 -26 6 -8 3 13 10 25 18 28 14 6 129 -55 121 -63 -3 -3
-30 9 -62 26 -31 18 -58 31 -60 29 -2 -2 52 -35 119 -73 67 -37 187 -105 267
-150 80 -45 300 -169 490 -275 190 -106 351 -198 357 -204 10 -9 -25 -31 -140
-93 l-152 -82 -45 26 c-40 23 -434 257 -899 534 l-165 98 60 27 c32 14 69 30
82 35 19 7 22 15 20 56 l-2 48 -3 -45 -4 -45 -80 -34 c-43 -18 -85 -31 -92
-28 -6 2 -43 23 -81 45 -38 22 -75 38 -83 35 -8 -3 -13 -20 -12 -47 l1 -41 8
38 c4 20 9 39 11 41 2 3 289 -165 638 -372 349 -207 629 -378 623 -380 -6 -2
-43 17 -84 41 -64 39 -342 204 -953 567 -187 111 -237 139 -220 123 6 -6 123
-77 260 -158 138 -81 304 -180 370 -220 66 -40 221 -132 345 -205 124 -73 233
-139 243 -146 16 -10 5 -19 -100 -75 -65 -35 -138 -74 -163 -87 l-46 -25 -259
164 c-143 89 -387 243 -543 340 -155 98 -283 181 -283 185 0 4 37 25 83 45
l83 38 1 43 c1 42 1 42 -3 5 -4 -38 -7 -40 -89 -78 -46 -21 -90 -39 -96 -39
-6 0 -44 21 -85 46 -41 25 -80 43 -88 40 -17 -6 -19 -49 -5 -111 7 -32 8 -28
3 24 -4 52 -3 62 8 55 23 -13 416 -261 859 -541 113 -71 237 -149 275 -173 39
-24 75 -48 82 -54 9 -8 -30 -34 -157 -101 -93 -50 -173 -89 -177 -88 -14 4
-1082 718 -1083 723 0 3 47 25 105 50 58 24 105 48 105 52 0 4 -42 -13 -93
-36 -138 -64 -126 -64 -210 -6 -50 34 -80 48 -92 44 -18 -7 -18 -15 0 -130 l7
-40 -117 -52 -117 -52 -46 32 c-26 17 -59 42 -74 54 -32 26 -68 22 -68 -8 0
-20 0 -20 18 0 17 20 22 17 369 -231 193 -139 469 -335 612 -437 157 -111 257
-188 252 -193 -6 -6 -130 78 -313 209 -806 579 -994 712 -894 632 28 -23 1127
-813 1169 -841 20 -13 11 -19 -145 -100 -91 -48 -171 -87 -177 -87 -7 0 -67
42 -134 93 -123 95 -450 342 -759 575 -92 69 -165 128 -163 132 2 3 49 26 104
49 105 45 108 49 91 101 -7 21 -8 19 -7 -14 l2 -38 -120 -54 c-66 -29 -126
-53 -132 -53 -7 -1 -44 23 -83 53 -49 38 -76 53 -90 49 -20 -5 -29 -33 -10
-33 6 0 173 -125 373 -278 199 -153 467 -358 595 -456 128 -98 230 -181 227
-185 -3 -3 -74 -42 -157 -87 l-152 -80 -425 343 c-234 189 -470 380 -525 424
l-98 81 99 45 99 44 -5 32 -6 32 -3 -31 c-3 -31 -9 -34 -144 -94 -122 -53
-143 -59 -155 -47 -8 8 -27 64 -42 125 l-28 110 46 20 c25 11 613 261 1306
557 1390 593 1371 585 1384 585 6 0 12 -33 14 -72 3 -73 3 -73 4 13 l1 86 -37
-17 c-20 -10 -250 -109 -511 -220 -261 -111 -590 -251 -730 -311 -140 -60
-529 -225 -865 -369 -446 -190 -611 -256 -617 -247 -25 39 -9 49 267 164 149
63 365 153 480 202 116 49 608 257 1095 461 487 205 887 375 890 377 3 3 -9 2
-25 -1 -29 -6 -29 -6 -6 6 20 10 25 9 37 -7 13 -17 14 -17 14 -2 0 10 -7 20
-15 24 -15 5 -250 -85 -242 -94 2 -2 17 1 32 7 15 6 30 9 32 7 3 -4 -70 -37
-81 -37 -1 0 -3 7 -3 15 0 8 -5 32 -11 52 -6 21 -30 245 -52 498 -36 411 -55
580 -59 535z m-3829 -845 c4 -16 5 -31 3 -34 -9 -8 -23 13 -31 43 -9 39 17 31
28 -9z m3691 -172 c98 -53 176 -97 173 -100 -4 -5 -395 203 -411 219 -13 14
26 -6 238 -119z m418 -19 c-29 -13 -59 -24 -65 -23 -16 0 86 47 104 48 8 0 -9
-11 -39 -25z m-791 -87 c69 -39 148 -83 175 -99 28 -15 45 -28 39 -28 -12 0
-383 207 -399 222 -14 14 41 -14 185 -95z m599 8 c-4 -3 -2332 -986 -2446
-1032 -7 -3 -13 -1 -13 4 0 4 46 27 103 50 56 23 291 121 522 219 231 97 542
227 690 289 463 194 426 177 407 190 -9 7 -88 54 -175 105 -87 51 -156 95
-153 98 3 2 85 -43 183 -102 l177 -106 346 144 c317 133 372 154 359 141z
m776 -438 c308 -165 581 -311 607 -325 26 -14 46 -28 43 -30 -5 -5 -1217 642
-1256 671 -23 17 -23 17 11 1 19 -9 287 -152 595 -317z m-2055 141 c227 -142
205 -127 198 -133 -4 -5 -379 224 -402 246 -33 30 32 -6 204 -113z m-362 -157
c106 -72 188 -132 184 -135 -5 -3 -61 30 -124 73 -63 43 -152 104 -199 135
-46 31 -77 56 -68 56 8 0 101 -58 207 -129z m2168 -187 c310 -175 564 -321
564 -326 0 -5 -15 -1 -32 10 -45 27 -265 151 -713 402 -368 206 -408 230 -391
230 5 0 262 -142 572 -316z m-2568 34 c103 -72 189 -133 191 -135 2 -1 2 -6
-2 -9 -3 -4 -84 49 -179 116 -213 152 -224 160 -209 160 7 0 96 -59 199 -132z
m1484 -144 c172 -108 453 -285 625 -392 171 -108 309 -200 306 -205 -2 -4 -15
-2 -26 6 -12 8 -292 184 -622 392 -330 208 -604 382 -609 387 -6 5 -5 8 2 8 6
0 152 -88 324 -196z m-1882 -30 c99 -75 177 -140 174 -145 -5 -8 -136 87 -201
144 -13 11 -25 18 -28 16 -2 -3 43 -41 100 -85 57 -43 104 -82 105 -85 0 -6
-154 -69 -169 -69 -13 0 -41 118 -45 189 l-4 64 -71 54 c-69 52 -87 71 -56 59
8 -3 96 -67 195 -142z m4228 81 c-3 -2 -798 -428 -1438 -770 -614 -328 -2306
-1233 -2563 -1371 -148 -79 -272 -144 -277 -144 -5 0 -10 -5 -12 -12 -2 -6 -4
8 -3 32 l1 44 120 63 c65 35 175 94 244 130 69 36 233 123 365 193 132 70 692
367 1245 660 553 293 1037 549 1075 570 39 20 237 125 440 233 204 108 467
247 585 310 208 110 215 113 218 90 2 -14 2 -26 0 -28z m-2431 -421 c334 -224
615 -413 623 -421 50 -49 -75 31 -598 382 -595 399 -642 430 -642 422 0 -2
274 -188 610 -412 335 -225 607 -412 604 -416 -3 -6 -297 -165 -345 -187 -4
-2 -116 75 -250 171 -134 95 -376 267 -537 381 -161 115 -290 212 -285 216 4
3 53 26 108 50 55 24 102 45 104 47 2 1 -1 34 -7 72 -10 60 -9 101 4 101 2 0
277 -183 611 -406z m-1883 348 c12 -19 18 -82 7 -82 -14 0 -31 64 -18 69 5 2
3 7 -4 12 -9 6 -10 9 -2 9 6 0 14 -3 17 -8z m4009 -22 c-4 -4 -359 -193 -788
-420 -429 -227 -1216 -644 -1749 -927 -533 -282 -970 -513 -972 -513 -2 0 -4
6 -4 14 0 7 69 50 153 94 867 457 1750 922 2092 1104 182 96 425 225 540 285
362 190 638 336 680 359 36 20 69 23 48 4z m-4350 -164 c92 -76 167 -142 167
-148 0 -5 -4 -8 -8 -6 -26 10 -370 303 -366 310 3 5 13 3 22 -5 10 -7 92 -75
185 -151z m49 -80 c48 -39 86 -75 85 -79 -2 -8 -204 -97 -219 -97 -4 0 -14 16
-23 36 -14 34 -105 335 -105 349 0 3 39 -26 88 -66 48 -39 126 -104 174 -143z
m-482 -121 c145 -127 162 -145 140 -145 -10 0 -340 287 -340 295 0 2 -3 12 -7
22 -4 12 4 9 28 -13 19 -17 99 -88 179 -159z m-151 -70 c0 -5 -16 35 -35 90
-19 54 -34 104 -33 110 0 5 16 -35 35 -90 19 -54 34 -104 33 -110z m966 186
c-7 -7 -589 -255 -862 -368 -7 -3 -13 -1 -13 5 0 6 12 15 28 20 15 6 209 87
432 181 223 94 409 171 415 171 6 0 6 -3 0 -9z m-950 -39 c22 -21 83 -75 135
-121 52 -46 101 -89 108 -96 10 -9 -5 -20 -78 -50 -50 -21 -92 -36 -94 -34
-10 11 -52 113 -73 179 -13 41 -30 94 -37 118 -8 23 -11 42 -8 42 4 0 25 -17
47 -38z m969 -8 c6 -18 -1 -24 -41 -42 -50 -21 -628 -267 -1037 -441 -131 -56
-239 -101 -240 -99 -1 2 -7 15 -13 30 -12 26 -12 26 88 68 55 24 98 44 96 47
-3 2 -46 -14 -97 -37 -52 -22 -98 -40 -104 -40 -27 0 23 25 189 95 231 98 223
96 229 86 3 -4 -42 -27 -100 -50 -58 -24 -103 -45 -101 -48 3 -2 254 101 558
230 305 129 557 231 560 228 4 -3 10 -16 13 -27z m658 -171 c903 -689 959
-731 948 -738 -13 -8 -7 -12 -251 174 -546 420 -859 659 -912 699 -31 24 -54
48 -51 53 3 5 16 2 29 -8 13 -10 120 -91 237 -180z m-626 46 c13 -46 24 -88
24 -92 0 -5 -14 2 -31 15 -68 50 -64 49 -82 35 -15 -11 -15 -17 3 -87 11 -41
20 -78 20 -81 0 -4 -21 -16 -47 -27 -27 -11 -98 -43 -160 -71 l-112 -49 -71
63 c-75 65 -111 76 -109 31 1 -23 37 -128 38 -110 1 6 -6 31 -14 54 -8 24 -14
44 -13 45 2 1 185 -161 408 -361 l405 -364 46 -175 c46 -172 57 -260 32 -260
-7 0 -67 52 -134 115 -67 63 -289 271 -493 463 -204 191 -372 351 -374 356 -1
4 31 23 73 41 60 26 75 37 74 54 0 21 0 21 -8 1 -6 -14 -47 -37 -122 -70 -63
-26 -140 -61 -171 -77 l-58 -28 -73 69 c-58 56 -76 67 -90 60 -18 -11 -24 -39
-7 -39 5 0 7 -6 4 -14 -3 -7 2 -29 10 -47 15 -32 15 -20 0 34 -8 29 -17 37
464 -433 217 -212 450 -439 518 -504 l125 -119 -88 -48 c-48 -27 -91 -50 -95
-51 -4 -2 -5 -13 -2 -25 4 -13 9 -21 13 -19 3 2 6 -8 6 -24 0 -24 -43 17 -335
314 -184 187 -423 431 -532 541 l-198 200 33 6 c26 5 23 7 -21 8 -59 1 -109
19 -135 48 -23 26 -69 145 -60 153 5 4 181 80 393 170 212 90 502 214 645 276
143 62 264 111 269 110 5 -1 20 -40 32 -87z m-1323 -160 c91 -87 124 -125 112
-127 -20 -4 -357 326 -348 341 3 5 28 -13 57 -40 28 -28 109 -106 179 -174z
m2390 -162 c271 -205 507 -383 525 -396 34 -24 38 -46 9 -46 -21 0 -1067 796
-1061 807 3 4 12 8 20 8 9 0 237 -168 507 -373z m-1030 181 c7 -19 6 -19 -10
-7 -75 57 -112 92 -107 100 7 13 107 -67 117 -93z m-55 15 c32 -26 58 -48 60
-49 6 -4 122 -458 120 -465 -2 -5 -73 53 -158 128 -85 75 -174 152 -198 172
l-43 37 88 39 c48 21 90 40 92 41 2 2 -4 32 -13 68 -23 95 -25 94 52 29z m537
-278 c176 -142 352 -284 390 -315 224 -181 300 -243 302 -249 2 -3 -15 -16
-37 -28 l-40 -22 -519 427 c-286 235 -520 430 -520 433 -1 4 16 13 37 21 29
12 40 12 52 3 8 -7 159 -128 335 -270z m-1462 233 c6 -21 2 -36 -7 -27 -10 11
-16 49 -8 49 5 0 12 -10 15 -22z m1741 -582 c211 -174 322 -272 314 -277 -7
-4 -23 2 -39 14 -45 37 -743 615 -878 727 -69 58 -127 114 -129 124 -2 10 85
-56 200 -151 113 -92 352 -289 532 -437z m-622 467 c52 -43 225 -186 384 -317
159 -132 342 -283 406 -335 64 -53 117 -98 117 -101 1 -8 -276 -150 -291 -150
-7 0 -31 17 -54 38 -22 20 -153 135 -291 255 -238 208 -251 221 -261 265 -6
26 -33 131 -60 235 -27 103 -48 187 -47 187 1 0 45 -35 97 -77z m-234 -377
c166 -147 302 -272 302 -276 0 -5 3 -16 7 -26 4 -10 -79 58 -183 152 -525 469
-623 559 -612 565 7 5 47 -24 98 -69 47 -42 221 -198 388 -346z m-65 248 c67
-59 152 -133 189 -166 37 -33 77 -67 88 -76 13 -11 31 -54 50 -126 16 -61 28
-112 25 -114 -2 -2 -139 117 -305 264 l-301 268 58 27 c32 15 62 28 66 28 5 1
64 -47 130 -105z m-428 -494 c251 -245 504 -490 562 -544 85 -81 101 -101 88
-109 -13 -7 -101 75 -433 400 -685 670 -719 704 -696 701 12 -2 221 -197 479
-448z m118 173 c289 -271 355 -333 566 -533 85 -80 160 -149 167 -153 8 -4 14
-12 14 -17 0 -4 -43 -31 -96 -59 l-96 -52 -341 332 c-188 183 -411 400 -495
483 l-154 151 89 42 c48 23 89 42 91 42 1 1 116 -105 255 -236z m987 -266
c118 -104 216 -193 218 -198 2 -4 -25 -22 -59 -40 -51 -25 -66 -29 -81 -20
-10 6 -97 82 -192 168 l-174 156 -27 101 c-14 56 -29 110 -32 121 -4 13 17 0
63 -40 38 -33 165 -145 284 -248z m-62 -151 c121 -109 146 -136 124 -136 -4 0
-53 -25 -107 -55 -55 -30 -102 -55 -105 -55 -12 1 -42 86 -74 217 -20 78 -36
145 -36 148 0 4 65 -53 146 -125 80 -73 147 -130 149 -128 3 3 -63 65 -146
138 -83 74 -155 142 -160 152 -20 38 -7 38 34 2 23 -22 102 -93 175 -158z
m-104 -252 c4 -15 4 -29 1 -32 -8 -8 -25 19 -25 41 0 26 17 20 24 -9z m-24
-49 c-2 -12 -12 -17 -255 -145 -137 -72 -192 -97 -200 -89 -6 8 -7 13 0 16 6
2 107 55 225 118 118 63 219 113 223 112 5 -1 8 -7 7 -12z"/>
<path d="M1195 2349 c6 -23 2 -27 -36 -39 -23 -8 -37 -16 -31 -18 17 -5 82 26
82 40 0 7 -5 20 -10 28 -8 11 -9 9 -5 -11z"/>
<path d="M4162 4315 c0 -16 3 -50 7 -75 6 -33 9 -37 9 -15 0 17 -3 50 -7 75
-6 33 -9 37 -9 15z"/>
<path d="M3842 4170 c0 -19 2 -27 5 -17 2 9 2 25 0 35 -3 9 -5 1 -5 -18z"/>
<path d="M4183 4155 c0 -22 2 -30 4 -17 2 12 2 30 0 40 -3 9 -5 -1 -4 -23z"/>
<path d="M3852 4100 c0 -19 2 -27 5 -17 2 9 2 25 0 35 -3 9 -5 1 -5 -18z"/>
<path d="M3502 4055 c0 -16 2 -22 5 -12 2 9 2 23 0 30 -3 6 -5 -1 -5 -18z"/>
<path d="M3862 4030 c0 -19 2 -27 5 -17 2 9 2 25 0 35 -3 9 -5 1 -5 -18z"/>
<path d="M3512 4000 c-1 -14 3 -43 7 -65 6 -26 9 -31 9 -15 1 14 -3 43 -7 65
-6 26 -9 31 -9 15z"/>
<path d="M3532 3865 c0 -16 2 -22 5 -12 2 9 2 23 0 30 -3 6 -5 -1 -5 -18z"/>
<path d="M3162 3850 c0 -14 2 -19 5 -12 2 6 2 18 0 25 -3 6 -5 1 -5 -13z"/>
<path d="M2792 3725 c0 -11 6 -42 13 -70 7 -27 13 -41 13 -30 0 11 -6 43 -13
70 -7 28 -13 41 -13 30z"/>
<path d="M2391 3640 c0 -8 8 -46 18 -85 11 -38 19 -63 20 -55 0 8 -8 47 -18
85 -11 39 -19 63 -20 55z"/>
<path d="M2822 3580 c0 -14 2 -19 5 -12 2 6 2 18 0 25 -3 6 -5 1 -5 -13z"/>
<path d="M6421 3333 c-1 -28 -32 -93 -43 -93 -5 0 -31 11 -58 25 -72 36 -80
29 -80 -69 l0 -82 -75 -42 c-41 -23 -77 -42 -79 -42 -2 0 -36 18 -75 40 -38
22 -77 37 -85 34 -12 -4 -16 -26 -18 -91 l-3 -86 -84 -47 -84 -48 -73 44 c-97
59 -104 55 -104 -55 l0 -87 -82 -45 c-45 -24 -89 -48 -98 -52 -12 -6 -37 4
-88 37 -91 59 -103 55 -100 -33 2 -63 2 -64 5 -13 2 28 6 52 9 52 4 0 401
-249 742 -465 l122 -78 0 -191 c0 -157 -3 -196 -16 -214 -23 -34 -69 -29 -139
16 -169 106 -195 126 -195 146 0 16 -82 75 -361 261 -198 131 -362 242 -365
246 -2 4 44 33 103 66 59 32 108 65 111 73 2 10 1 11 -5 4 -4 -7 -57 -39 -117
-72 -123 -68 -102 -69 -208 6 -39 28 -50 31 -68 22 -22 -12 -27 -30 -7 -30 6
-1 206 -130 442 -289 l430 -288 6 -99 5 -99 2 103 c1 60 6 102 12 102 6 0 11
-42 12 -102 l2 -103 5 83 6 82 90 -61 c156 -104 189 -116 245 -82 43 25 50 52
50 203 0 77 3 140 6 140 4 0 46 -25 94 -55 48 -30 101 -60 118 -66 61 -21 142
29 142 88 0 14 -4 22 -10 18 -8 -5 -10 47 -8 164 2 94 0 171 -3 171 -6 0 -859
507 -868 516 -2 2 -2 6 1 9 6 6 870 -503 880 -519 4 -6 9 -63 10 -126 1 -63 3
-89 5 -57 2 31 6 57 8 57 2 0 41 -22 88 -50 47 -27 91 -50 99 -50 7 0 -10 12
-37 28 -28 15 -74 41 -103 57 l-52 30 0 60 -1 60 -212 125 c-298 175 -511 301
-515 305 -2 2 35 25 82 51 l85 47 3 77 3 77 265 -150 c146 -82 326 -183 400
-224 74 -42 151 -85 170 -97 19 -11 41 -19 48 -18 10 2 13 -12 11 -62 l-2 -66
44 -23 c24 -13 60 -34 79 -45 19 -12 44 -21 55 -21 l20 1 -20 6 c-11 4 -53 25
-92 47 l-73 39 0 73 0 72 -127 72 c-71 39 -235 132 -367 206 l-238 136 53 30
c107 59 99 49 99 132 0 41 2 75 4 75 3 0 199 -104 436 -232 292 -156 435 -238
440 -252 9 -21 9 -21 9 0 1 19 -59 54 -386 230 -472 252 -495 265 -489 271 2
3 141 -68 308 -158 167 -89 362 -194 433 -232 72 -38 132 -71 135 -74 2 -2 7
-25 11 -51 l6 -47 2 50 1 51 -372 198 c-205 110 -378 203 -384 208 -9 6 -7 20
8 49 10 22 17 50 15 62 l-4 22 -2 -22z m-365 -299 c289 -161 740 -417 749
-426 29 -29 -60 18 -448 237 -362 203 -448 255 -424 255 2 0 57 -30 123 -66z
m-115 -365 c195 -117 386 -231 424 -254 l70 -42 3 -177 c1 -112 6 -175 12
-171 6 3 10 -1 10 -9 0 -18 -20 -32 -20 -14 -1 7 -7 -1 -14 -19 -10 -22 -23
-33 -46 -38 -36 -8 -76 10 -197 88 -69 44 -72 48 -75 89 l-3 43 -300 187
c-165 104 -329 206 -364 229 l-65 41 95 52 94 53 3 77 c2 42 6 76 11 76 4 0
167 -95 362 -211z m-252 -254 c220 -137 400 -253 401 -257 0 -5 -4 -8 -10 -8
-17 0 -870 541 -870 552 0 12 -11 19 479 -287z m-415 -214 c236 -157 423 -288
418 -293 -10 -10 -883 572 -876 584 7 11 -32 35 458 -291z m826 -226 c0 -103
-4 -165 -10 -165 -6 0 -10 62 -10 165 0 103 4 165 10 165 6 0 10 -62 10 -165z
m-9 -212 c-10 -17 -10 -16 -11 3 0 23 13 41 18 25 2 -6 -1 -18 -7 -28z"/>
<path d="M2972 3220 c0 -14 2 -19 5 -12 2 6 2 18 0 25 -3 6 -5 1 -5 -13z"/>
<path d="M2551 3054 c0 -11 3 -14 6 -6 3 7 2 16 -1 19 -3 4 -6 -2 -5 -13z"/>
<path d="M2561 3014 c0 -11 3 -14 6 -6 3 7 2 16 -1 19 -3 4 -6 -2 -5 -13z"/>
<path d="M7123 2680 c0 -36 2 -50 4 -32 2 17 2 47 0 65 -2 17 -4 3 -4 -33z"/>
<path d="M7143 2625 c0 -38 2 -53 4 -32 2 20 2 52 0 70 -2 17 -4 1 -4 -38z"/>
<path d="M7111 2535 c-3 -97 -18 -136 -61 -158 -24 -12 -27 -15 -10 -11 37 10
80 43 91 71 5 13 8 41 8 61 -2 36 -2 36 -8 7 -4 -23 -7 -15 -11 35 l-7 65 -2
-70z m10 -92 c-8 -15 -10 -15 -11 -2 0 17 10 32 18 25 2 -3 -1 -13 -7 -23z"/>
<path d="M6794 2470 c0 -58 1 -81 3 -52 2 28 2 76 0 105 -2 28 -3 5 -3 -53z"/>
<path d="M4803 2410 c0 -30 2 -43 4 -27 2 15 2 39 0 55 -2 15 -4 2 -4 -28z"/>
<path d="M6810 2361 c0 -76 -14 -117 -23 -69 -2 13 -5 3 -6 -22 -1 -54 -22
-87 -65 -106 -17 -7 -25 -13 -18 -14 25 0 83 33 99 56 15 24 33 234 19 234 -3
0 -6 -36 -6 -79z m-18 -143 c-8 -8 -9 -4 -5 13 4 13 8 18 11 10 2 -7 -1 -18
-6 -23z"/>
<path d="M4808 2334 c-2 -9 -57 -47 -123 -84 l-120 -67 -71 49 c-80 56 -115
59 -113 10 l1 -27 10 28 c5 15 16 27 24 25 12 -3 789 -552 846 -597 13 -11 17
-20 11 -24 -6 -4 -203 130 -438 298 -235 168 -429 304 -431 302 -2 -2 94 -73
213 -159 120 -85 313 -223 430 -307 l212 -152 4 -57 3 -57 2 63 c2 61 16 84
25 40 4 -20 4 -19 6 5 1 30 7 33 30 13 9 -7 72 -52 140 -100 145 -101 172
-107 227 -52 31 31 34 38 33 93 -1 32 -4 45 -6 28 -7 -50 -23 -53 -25 -4 0 28
-3 16 -8 -35 -10 -125 -49 -137 -171 -53 -201 139 -929 661 -929 667 0 4 52
35 115 70 81 45 115 69 115 82 0 22 -7 24 -12 2z m912 -797 c0 -7 -7 -22 -16
-33 -14 -17 -15 -17 -10 -1 3 10 6 25 6 33 0 8 5 14 10 14 6 0 10 -6 10 -13z"/>
<path d="M4393 2175 c0 -22 2 -30 4 -17 2 12 2 30 0 40 -3 9 -5 -1 -4 -23z"/>
<path d="M4400 2111 c0 -15 -34 -39 -134 -95 -74 -42 -136 -76 -138 -76 -3 0
-37 25 -77 54 -63 47 -76 53 -92 43 -10 -6 -19 -18 -19 -25 0 -7 4 -11 8 -8 9
5 80 -48 442 -327 102 -79 238 -183 302 -232 65 -50 117 -97 118 -105 0 -9 6
-5 18 10 l17 25 6 -35 6 -35 2 37 c1 40 21 24 -576 476 -78 59 -142 110 -143
114 0 4 9 9 19 13 15 4 78 -38 253 -171 792 -600 770 -584 797 -584 8 0 0 8
-19 18 -52 26 -1000 744 -994 753 2 4 52 34 109 66 85 47 105 62 105 80 0 13
-2 23 -5 23 -3 0 -5 -9 -5 -19z m17 -406 c232 -176 422 -323 422 -326 3 -31
-79 25 -439 303 -228 175 -422 326 -430 334 -13 14 -13 15 5 12 11 -2 210
-147 442 -323z"/>
<path d="M3952 1970 c-1 -14 3 -46 7 -72 l8 -47 -154 -86 -153 -86 -69 56
c-105 84 -122 75 -98 -55 10 -58 11 -82 3 -88 -16 -13 -276 -158 -308 -173
-25 -11 -31 -8 -95 50 -37 33 -70 61 -73 61 -3 0 -13 -7 -23 -14 -15 -12 -16
-20 -8 -48 7 -27 9 -29 10 -9 1 21 10 15 84 -51 45 -41 231 -208 414 -372 304
-272 333 -301 342 -339 l11 -42 -5 41 c-3 28 0 45 9 53 11 10 15 8 19 -6 4
-15 5 -14 6 4 1 17 -81 95 -349 333 -192 172 -347 316 -345 320 6 10 115 70
127 70 9 0 105 -82 637 -545 183 -159 343 -295 355 -302 33 -19 71 -15 100 12
23 21 26 32 26 86 0 34 -3 60 -6 57 -3 -4 -5 -31 -5 -62 0 -31 -5 -59 -11 -62
-6 -4 -9 5 -7 22 1 16 -1 36 -4 44 -3 8 -8 26 -11 40 -2 14 -2 -3 1 -37 6 -71
-7 -103 -41 -103 -30 0 -21 -7 -427 345 -190 165 -400 347 -467 405 -67 58
-122 108 -122 111 0 3 43 29 95 58 81 45 94 56 90 74 -18 88 -25 130 -22 134
2 2 175 -137 383 -309 209 -172 398 -328 422 -346 29 -24 42 -42 43 -60 l1
-27 7 29 c11 55 28 39 39 -36 l11 -73 -6 70 c-3 39 -9 77 -13 86 -5 8 -42 42
-82 75 -40 33 -198 163 -351 288 l-279 228 42 24 c26 15 47 21 54 16 6 -5 222
-178 479 -386 257 -207 482 -386 500 -396 18 -11 42 -20 55 -20 30 0 78 25 86
45 8 21 8 130 0 123 -3 -4 -5 -31 -5 -61 0 -34 -6 -60 -14 -67 -11 -9 -12 -4
-5 25 4 20 4 38 -1 41 -5 3 -9 -9 -9 -26 0 -64 -38 -88 -93 -58 -20 10 -252
195 -767 612 -107 87 -201 164 -209 171 -11 11 5 23 90 70 57 32 105 58 105
59 1 1 -4 35 -11 76 -7 41 -13 64 -13 50z m-13 -532 c229 -189 418 -347 419
-353 1 -5 -4 -10 -12 -10 -16 0 -846 682 -846 696 0 5 5 9 10 9 6 0 199 -154
429 -342z m-289 -478 c3 -3 50 -46 105 -94 55 -49 101 -92 103 -96 2 -4 -4
-10 -12 -13 -9 -4 -159 124 -423 360 -224 201 -412 369 -418 374 -6 7 -5 13 4
18 10 7 100 -67 325 -267 171 -152 313 -279 316 -282z"/>
<path d="M5303 1500 c0 -41 2 -58 4 -37 2 20 2 54 0 75 -2 20 -4 3 -4 -38z"/>
<path d="M5273 1440 c0 -36 2 -50 4 -32 2 17 2 47 0 65 -2 17 -4 3 -4 -33z"/>
<path d="M3005 1404 c2 -18 7 -42 10 -55 5 -22 -9 -32 -187 -131 l-193 -108
-67 67 c-62 62 -69 66 -92 55 l-24 -11 24 -88 c13 -48 24 -91 24 -94 0 -9
-115 -59 -136 -59 -11 0 -24 -4 -31 -8 -8 -5 155 -176 465 -488 262 -265 419
-420 347 -345 -71 75 -263 271 -425 436 -333 338 -380 386 -380 391 0 2 10 4
23 4 26 0 147 55 147 67 0 5 -9 40 -19 78 -11 38 -18 71 -17 72 7 7 812 -789
818 -809 6 -22 6 -22 7 3 2 43 28 44 40 1 l10 -37 -5 40 c-6 44 -34 74 -492
517 -112 109 -201 201 -199 205 3 4 48 30 100 58 l94 49 224 -209 c123 -115
260 -244 304 -286 264 -251 431 -402 460 -416 31 -15 35 -15 69 6 20 13 36 30
36 39 0 13 -3 12 -15 -4 -14 -18 -14 -18 -15 9 0 16 7 30 15 33 9 4 15 18 14
33 l-1 26 -7 -24 c-8 -30 -28 -38 -34 -14 -3 10 -3 -2 -1 -27 4 -31 1 -51 -10
-65 l-15 -20 -35 20 c-29 17 -459 413 -810 746 -50 47 -108 101 -128 119 -21
17 -38 35 -38 39 0 3 37 26 81 51 45 25 83 49 85 55 2 5 -3 33 -11 60 -8 28
-13 36 -10 19z m-63 -603 c205 -200 374 -367 376 -371 2 -4 -4 -10 -13 -14
-22 -8 -842 794 -823 805 17 10 37 -8 460 -420z"/>
<path d="M5309 1348 c-1 -29 -1 -61 0 -70 1 -10 -2 -26 -8 -35 -7 -14 -10 -3
-10 40 0 33 -2 61 -5 65 -3 3 -6 -22 -6 -54 0 -60 -11 -87 -40 -97 -11 -4 -11
-6 3 -6 10 -1 32 12 48 28 27 27 29 35 29 105 0 85 -9 105 -11 24z"/>
<path d="M4823 1270 c0 -25 2 -35 4 -22 2 12 2 32 0 45 -2 12 -4 2 -4 -23z"/>
<path d="M4863 1250 c0 -25 2 -35 4 -22 2 12 2 32 0 45 -2 12 -4 2 -4 -23z"/>
<path d="M4833 1170 c0 -25 2 -35 4 -22 2 12 2 32 0 45 -2 12 -4 2 -4 -23z"/>
<path d="M4873 1145 c0 -27 2 -38 4 -22 2 15 2 37 0 50 -2 12 -4 0 -4 -28z"/>
<path d="M4843 1080 c0 -25 2 -35 4 -22 2 12 2 32 0 45 -2 12 -4 2 -4 -23z"/>
<path d="M4352 975 c0 -16 3 -50 7 -75 6 -33 9 -37 9 -15 0 17 -3 50 -7 75 -6
33 -9 37 -9 15z"/>
<path d="M4402 890 c0 -19 2 -27 5 -17 2 9 2 25 0 35 -3 9 -5 1 -5 -18z"/>
<path d="M4372 820 c0 -19 2 -27 5 -17 2 9 2 25 0 35 -3 9 -5 1 -5 -18z"/>
<path d="M4412 820 c0 -19 2 -27 5 -17 2 9 2 25 0 35 -3 9 -5 1 -5 -18z"/>
<path d="M3882 700 c0 -14 4 -38 8 -55 7 -27 8 -27 8 -5 0 14 -4 39 -8 55 -7
27 -8 27 -8 5z"/>
<path d="M3852 625 c0 -16 2 -22 5 -12 2 9 2 23 0 30 -3 6 -5 -1 -5 -18z"/>
<path d="M3902 590 c0 -14 2 -19 5 -12 2 6 2 18 0 25 -3 6 -5 1 -5 -13z"/>
<path d="M3862 570 c0 -14 2 -19 5 -12 2 6 2 18 0 25 -3 6 -5 1 -5 -13z"/>
<path d="M3912 535 c0 -16 2 -22 5 -12 2 9 2 23 0 30 -3 6 -5 -1 -5 -18z"/>
<path d="M3872 515 c0 -16 2 -22 5 -12 2 9 2 23 0 30 -3 6 -5 -1 -5 -18z"/>
<path d="M3922 475 c0 -16 2 -22 5 -12 2 9 2 23 0 30 -3 6 -5 -1 -5 -18z"/>
<path d="M3882 455 c0 -16 2 -22 5 -12 2 9 2 23 0 30 -3 6 -5 -1 -5 -18z"/>
<path d="M3301 340 c0 -8 6 -37 13 -65 8 -27 15 -43 15 -35 0 8 -6 38 -13 65
-8 28 -15 43 -15 35z"/>
<path d="M3351 333 c-1 -6 12 -69 29 -140 22 -96 26 -129 17 -135 -21 -13 -25
-9 -32 33 -4 22 -9 38 -12 36 -2 -3 2 -33 9 -67 9 -46 14 -57 18 -40 8 32 28
36 33 8 3 -13 3 2 1 32 -4 52 -61 299 -63 273z"/>
<path d="M3332 205 c0 -11 4 -31 8 -45 6 -20 8 -21 8 -5 0 11 -4 31 -8 45 -6
20 -8 21 -8 5z"/>
</g>
</svg>
